<mxfile host="Electron" modified="2024-06-30T21:05:13.529Z" agent="Mozilla/5.0 (Windows NT 10.0; Win64; x64) AppleWebKit/537.36 (KHTML, like Gecko) draw.io/24.2.5 Chrome/120.0.6099.109 Electron/28.1.0 Safari/537.36" etag="Vgf3HRtFiU0DmqcsE-sF" version="24.2.5" type="device">
  <diagram name="PÃ¡gina-1" id="1AcPv0p3frN0AQaaxFB1">
    <mxGraphModel dx="880" dy="524" grid="1" gridSize="10" guides="1" tooltips="1" connect="1" arrows="1" fold="1" page="1" pageScale="1" pageWidth="827" pageHeight="1169" math="0" shadow="0">
      <root>
        <mxCell id="0" />
        <mxCell id="1" parent="0" />
        <mxCell id="eFbo4K4t7LegAghHyoL2-27" value="" style="rounded=0;whiteSpace=wrap;html=1;" vertex="1" parent="1">
          <mxGeometry x="160" y="68" width="610" height="430" as="geometry" />
        </mxCell>
        <mxCell id="eFbo4K4t7LegAghHyoL2-19" value="" style="edgeStyle=orthogonalEdgeStyle;rounded=0;orthogonalLoop=1;jettySize=auto;html=1;" edge="1" parent="1" source="eFbo4K4t7LegAghHyoL2-2">
          <mxGeometry relative="1" as="geometry">
            <mxPoint x="86" y="271.59000000000003" as="targetPoint" />
          </mxGeometry>
        </mxCell>
        <mxCell id="eFbo4K4t7LegAghHyoL2-2" value="USER" style="shape=umlActor;verticalLabelPosition=bottom;verticalAlign=top;html=1;outlineConnect=0;" vertex="1" parent="1">
          <mxGeometry x="80" y="353" width="30" height="60" as="geometry" />
        </mxCell>
        <mxCell id="eFbo4K4t7LegAghHyoL2-21" value="" style="edgeStyle=orthogonalEdgeStyle;rounded=0;orthogonalLoop=1;jettySize=auto;html=1;" edge="1" parent="1" source="eFbo4K4t7LegAghHyoL2-6" target="eFbo4K4t7LegAghHyoL2-12">
          <mxGeometry relative="1" as="geometry" />
        </mxCell>
        <mxCell id="eFbo4K4t7LegAghHyoL2-6" value="API GATEWAY" style="rounded=1;whiteSpace=wrap;html=1;verticalAlign=middle;textDirection=vertical-lr;labelBackgroundColor=default;fontStyle=1" vertex="1" parent="1">
          <mxGeometry x="240" y="98" width="50" height="320" as="geometry" />
        </mxCell>
        <mxCell id="eFbo4K4t7LegAghHyoL2-7" value="localhost&lt;span style=&quot;background-color: initial;&quot;&gt;:8080&lt;/span&gt;" style="text;html=1;align=center;verticalAlign=middle;whiteSpace=wrap;rounded=0;" vertex="1" parent="1">
          <mxGeometry x="205" y="468" width="130" height="30" as="geometry" />
        </mxCell>
        <mxCell id="eFbo4K4t7LegAghHyoL2-24" style="edgeStyle=orthogonalEdgeStyle;rounded=0;orthogonalLoop=1;jettySize=auto;html=1;" edge="1" parent="1" source="eFbo4K4t7LegAghHyoL2-9" target="eFbo4K4t7LegAghHyoL2-15">
          <mxGeometry relative="1" as="geometry" />
        </mxCell>
        <mxCell id="eFbo4K4t7LegAghHyoL2-9" value="" style="shape=image;verticalLabelPosition=bottom;labelBackgroundColor=default;verticalAlign=top;aspect=fixed;imageAspect=0;image=https://pluralsight2.imgix.net/paths/images/nodejs-45adbe594d.png;" vertex="1" parent="1">
          <mxGeometry x="388" y="88" width="72" height="72" as="geometry" />
        </mxCell>
        <mxCell id="eFbo4K4t7LegAghHyoL2-10" value="MSVC-CLIENTS&lt;div&gt;&lt;span style=&quot;font-weight: normal;&quot;&gt;localhost:3001&lt;/span&gt;&lt;/div&gt;" style="text;html=1;align=center;verticalAlign=middle;whiteSpace=wrap;rounded=0;fontStyle=1;fontSize=11;" vertex="1" parent="1">
          <mxGeometry x="370" y="148" width="108" height="30" as="geometry" />
        </mxCell>
        <mxCell id="eFbo4K4t7LegAghHyoL2-11" value="" style="shape=image;verticalLabelPosition=bottom;labelBackgroundColor=default;verticalAlign=top;aspect=fixed;imageAspect=0;image=https://pluralsight2.imgix.net/paths/images/nodejs-45adbe594d.png;" vertex="1" parent="1">
          <mxGeometry x="388" y="198" width="72" height="72" as="geometry" />
        </mxCell>
        <mxCell id="eFbo4K4t7LegAghHyoL2-26" style="edgeStyle=orthogonalEdgeStyle;rounded=0;orthogonalLoop=1;jettySize=auto;html=1;" edge="1" parent="1" source="eFbo4K4t7LegAghHyoL2-12" target="eFbo4K4t7LegAghHyoL2-16">
          <mxGeometry relative="1" as="geometry" />
        </mxCell>
        <mxCell id="eFbo4K4t7LegAghHyoL2-12" value="MSVC-PRODUCTS&lt;div&gt;&lt;span style=&quot;font-weight: normal;&quot;&gt;localhost:3002&lt;/span&gt;&lt;/div&gt;" style="text;html=1;align=center;verticalAlign=middle;whiteSpace=wrap;rounded=0;fontStyle=1;fontSize=11;" vertex="1" parent="1">
          <mxGeometry x="370" y="258" width="108" height="30" as="geometry" />
        </mxCell>
        <mxCell id="eFbo4K4t7LegAghHyoL2-13" value="" style="shape=image;verticalLabelPosition=bottom;labelBackgroundColor=default;verticalAlign=top;aspect=fixed;imageAspect=0;image=https://pluralsight2.imgix.net/paths/images/nodejs-45adbe594d.png;" vertex="1" parent="1">
          <mxGeometry x="388" y="308" width="72" height="72" as="geometry" />
        </mxCell>
        <mxCell id="eFbo4K4t7LegAghHyoL2-25" style="edgeStyle=orthogonalEdgeStyle;rounded=0;orthogonalLoop=1;jettySize=auto;html=1;entryX=0.5;entryY=1;entryDx=0;entryDy=0;" edge="1" parent="1" source="eFbo4K4t7LegAghHyoL2-14" target="eFbo4K4t7LegAghHyoL2-16">
          <mxGeometry relative="1" as="geometry" />
        </mxCell>
        <mxCell id="eFbo4K4t7LegAghHyoL2-14" value="MSVC-USERS&lt;div&gt;&lt;span style=&quot;font-weight: normal;&quot;&gt;localhost:3003&lt;/span&gt;&lt;/div&gt;" style="text;html=1;align=center;verticalAlign=middle;whiteSpace=wrap;rounded=0;fontStyle=1;fontSize=11;" vertex="1" parent="1">
          <mxGeometry x="375" y="368" width="108" height="30" as="geometry" />
        </mxCell>
        <mxCell id="eFbo4K4t7LegAghHyoL2-15" value="" style="shape=image;verticalLabelPosition=bottom;labelBackgroundColor=default;verticalAlign=top;aspect=fixed;imageAspect=0;image=https://hoplasoftware.com/wp-content/uploads/2021/07/1024px-MySQL.ff87215b43fd7292af172e2a5d9b844217262571.png;" vertex="1" parent="1">
          <mxGeometry x="630" y="178" width="114" height="59.01" as="geometry" />
        </mxCell>
        <mxCell id="eFbo4K4t7LegAghHyoL2-16" value="&lt;div&gt;BBBVENTAS&lt;/div&gt;&lt;div&gt;&lt;span style=&quot;font-weight: normal;&quot;&gt;localhost:3306&lt;/span&gt;&lt;/div&gt;" style="text;html=1;align=center;verticalAlign=middle;whiteSpace=wrap;rounded=0;fontStyle=1;fontSize=11;" vertex="1" parent="1">
          <mxGeometry x="633" y="248" width="108" height="30" as="geometry" />
        </mxCell>
        <mxCell id="eFbo4K4t7LegAghHyoL2-17" value="" style="shape=image;verticalLabelPosition=bottom;labelBackgroundColor=default;verticalAlign=top;aspect=fixed;imageAspect=0;image=https://blog.geekhunter.com.br/wp-content/uploads/2020/07/pngwing.com_.png;" vertex="1" parent="1">
          <mxGeometry x="235" y="408" width="70" height="70" as="geometry" />
        </mxCell>
        <mxCell id="eFbo4K4t7LegAghHyoL2-20" value="" style="edgeStyle=orthogonalEdgeStyle;rounded=0;orthogonalLoop=1;jettySize=auto;html=1;" edge="1" parent="1" target="eFbo4K4t7LegAghHyoL2-6">
          <mxGeometry relative="1" as="geometry">
            <mxPoint x="132" y="241.39999999999998" as="sourcePoint" />
          </mxGeometry>
        </mxCell>
        <mxCell id="eFbo4K4t7LegAghHyoL2-18" value="" style="shape=image;verticalLabelPosition=bottom;labelBackgroundColor=default;verticalAlign=top;aspect=fixed;imageAspect=0;image=https://miro.medium.com/v2/resize:fit:522/0*Hdm7hBTZ-hKlbtlV.png;" vertex="1" parent="1">
          <mxGeometry x="40" y="203.77999999999997" width="92" height="60.45" as="geometry" />
        </mxCell>
        <mxCell id="eFbo4K4t7LegAghHyoL2-22" value="" style="endArrow=classic;html=1;rounded=0;entryX=0;entryY=0.25;entryDx=0;entryDy=0;" edge="1" parent="1" source="eFbo4K4t7LegAghHyoL2-6" target="eFbo4K4t7LegAghHyoL2-10">
          <mxGeometry width="50" height="50" relative="1" as="geometry">
            <mxPoint x="390" y="248" as="sourcePoint" />
            <mxPoint x="440" y="198" as="targetPoint" />
          </mxGeometry>
        </mxCell>
        <mxCell id="eFbo4K4t7LegAghHyoL2-23" value="" style="endArrow=classic;html=1;rounded=0;exitX=1;exitY=0.75;exitDx=0;exitDy=0;entryX=0;entryY=0.5;entryDx=0;entryDy=0;" edge="1" parent="1" source="eFbo4K4t7LegAghHyoL2-6" target="eFbo4K4t7LegAghHyoL2-14">
          <mxGeometry width="50" height="50" relative="1" as="geometry">
            <mxPoint x="390" y="248" as="sourcePoint" />
            <mxPoint x="440" y="198" as="targetPoint" />
          </mxGeometry>
        </mxCell>
        <mxCell id="eFbo4K4t7LegAghHyoL2-28" value="ARQUITECTURA BACKEND" style="text;html=1;align=center;verticalAlign=middle;whiteSpace=wrap;rounded=0;strokeColor=default;fontStyle=1;fontSize=13;fontFamily=Helvetica;" vertex="1" parent="1">
          <mxGeometry x="160" y="40" width="210" height="20" as="geometry" />
        </mxCell>
      </root>
    </mxGraphModel>
  </diagram>
</mxfile>
